Coordinates
version=1
nRows=14
nColumns=24
inDegrees=yes

Units are S.I. units (second, meters, Newtons, ...)
If the header above contains a line with 'inDegrees', this indicates whether rotational values are in degrees (yes) or radians (no).

endheader
time	pelvis_tilt	pelvis_list	pelvis_rotation	pelvis_tx	pelvis_ty	pelvis_tz	hip_flexion_r	hip_adduction_r	hip_rotation_r	knee_angle_r	ankle_angle_r	subtalar_angle_r	mtp_angle_r	hip_flexion_l	hip_adduction_l	hip_rotation_l	knee_angle_l	ankle_angle_l	subtalar_angle_l	mtp_angle_l	lumbar_extension	lumbar_bending	lumbar_rotation
      6.94500000	      9.83770937	      1.68916843	   -179.12585405	      0.30193172	      0.79675648	     -1.22570878	     37.97741079	    -16.60320565	    -24.22306914	    -46.22525086	     12.38524447	      4.31058963	      0.00000000	     38.83465210	    -21.75185457	    -19.22691522	    -44.10236473	     10.32732584	     10.57586978	      0.00000000	     -4.58621724	      1.81339426	      1.09184175
      6.95000000	      9.80129439	      1.70351086	   -179.16835643	      0.30093773	      0.80013840	     -1.22567492	     37.26908578	    -16.31119767	    -24.37615195	    -45.03625704	     11.88726866	      4.36302404	      0.00000000	     38.06743918	    -21.53096065	    -19.41166545	    -42.91438233	      9.84626043	     10.49066525	      0.00000000	     -4.44787844	      1.82690913	      1.09249797
      6.95500000	      9.71715718	      1.67164805	   -179.15435227	      0.30000390	      0.80341454	     -1.22571916	     36.51965408	    -16.08214015	    -24.51833728	    -43.87194852	     11.40257219	      4.42084552	      0.00000000	     37.27293169	    -21.24449610	    -19.56541077	    -41.73026904	      9.36223363	     10.42346432	      0.00000000	     -4.37177612	      1.78055810	      1.02152102
      6.96000000	      9.73554665	      1.70642548	   -179.20820029	      0.29901703	      0.80647249	     -1.22562769	     35.87374292	    -15.77531928	    -24.66152531	    -42.67068473	     10.86675845	      4.52807219	      0.00000000	     36.59241320	    -21.04409128	    -19.72968074	    -40.57712277	      8.90319067	     10.35449223	      0.00000000	     -4.17883978	      1.82026446	      1.04160948
      6.96500000	      9.62715135	      1.67783829	   -179.19327974	      0.29804895	      0.80958996	     -1.22565596	     35.10444510	    -15.54904142	    -24.81624378	    -41.50074457	     10.36941930	      4.60848594	      0.00000000	     35.78330025	    -20.76391994	    -19.87940083	    -39.39845437	      8.40745449	     10.30088886	      0.00000000	     -4.11379940	      1.78138998	      0.98897340
      6.97000000	      9.64223881	      1.72049423	   -179.26136900	      0.29703134	      0.81247961	     -1.22556502	     34.48272775	    -15.23342352	    -24.95494411	    -40.33463749	      9.84610447	      4.71669266	      0.00000000	     35.09899441	    -20.57820069	    -20.05178280	    -38.23341567	      7.89459966	     10.19315703	      0.00000000	     -3.90882377	      1.85927184	      1.00191176
      6.97500000	      9.53984471	      1.72302715	   -179.25257946	      0.29603355	      0.81530260	     -1.22539428	     33.74381448	    -15.01970854	    -25.17517971	    -39.21778788	      9.36142909	      4.83311855	      0.00000000	     34.33327990	    -20.31428058	    -20.14646788	    -37.10563903	      7.41281434	     10.08768618	      0.00000000	     -3.85229579	      1.84972191	      1.01488931
      6.98000000	      9.55739323	      1.75780645	   -179.30397291	      0.29505622	      0.81801786	     -1.22529402	     33.13859865	    -14.73273848	    -25.34330844	    -38.07354922	      8.82620431	      4.94383492	      0.00000000	     33.67550526	    -20.10930849	    -20.28043013	    -35.96460825	      6.93749806	      9.98829726	      0.00000000	     -3.63016986	      1.93984283	      0.98847394
      6.98500000	      9.54768216	      1.75946853	   -179.31157508	      0.29408419	      0.82055469	     -1.22512266	     32.50322652	    -14.50681282	    -25.52227026	    -36.94746212	      8.30822033	      5.07760532	      0.00000000	     33.01332477	    -19.84774102	    -20.38191307	    -34.85824080	      6.57611329	      9.97816270	      0.00000000	     -3.46522552	      1.96041010	      0.97332413
      6.99000000	      9.43459973	      1.73221556	   -179.26575081	      0.29315854	      0.82306452	     -1.22509124	     31.76366402	    -14.31983118	    -25.72011297	    -35.84925605	      7.87404073	      5.20042097	      0.00000000	     32.28285222	    -19.56384242	    -20.46277531	    -33.80390732	      6.22569588	     10.01150638	      0.00000000	     -3.41281891	      1.90842439	      0.92775748
      6.99500000	      9.43037615	      1.78495969	   -179.27470881	      0.29208818	      0.82544061	     -1.22491279	     31.12014650	    -14.03629676	    -25.92207441	    -34.72169243	      7.41133352	      5.31705397	      0.00000000	     31.64225215	    -19.36568258	    -20.54578018	    -32.73183463	      5.87803109	      9.91652019	      0.00000000	     -3.21271432	      1.99321615	      0.88516052
      7.00000000	      9.37875453	      1.77237223	   -179.24310075	      0.29122702	      0.82767296	     -1.22480544	     30.49319470	    -13.84983007	    -26.12480038	    -33.71208907	      7.02153352	      5.38029925	      0.00000000	     30.99013771	    -19.10085582	    -20.60547725	    -31.69050360	      5.49092566	      9.78200245	      0.00000000	     -3.09148277	      1.96789796	      0.86869917
      7.00500000	      9.36893776	      1.81635764	   -179.26928076	      0.29018625	      0.82981427	     -1.22455759	     29.88581737	    -13.58447365	    -26.29419086	    -32.65373663	      6.62571951	      5.48135940	      0.00000000	     30.37418355	    -18.90089868	    -20.64865388	    -30.68781575	      5.16815909	      9.64544248	      0.00000000	     -2.89675459	      2.05768054	      0.87219454
      7.01000000	      9.32374316	      1.80661207	   -179.21008763	      0.28933591	      0.83176207	     -1.22449458	     29.26616515	    -13.39923542	    -26.48754402	    -31.66068536	      6.27101008	      5.56311510	      0.00000000	     29.77143005	    -18.63520134	    -20.65743070	    -29.71659931	      4.84187892	      9.61533292	      0.00000000	     -2.76786143	      2.04835412	      0.78311633
